<mxfile host="Electron" modified="2023-05-22T17:05:43.829Z" agent="Mozilla/5.0 (Windows NT 10.0; Win64; x64) AppleWebKit/537.36 (KHTML, like Gecko) draw.io/21.2.8 Chrome/112.0.5615.165 Electron/24.2.0 Safari/537.36" etag="tQQIUdf3lcMoQOAiElJ4" version="21.2.8" type="device">
  <diagram name="Page-1" id="8aZVQbS2iZaUO9ylAEI-">
    <mxGraphModel dx="2843" dy="836" grid="1" gridSize="10" guides="1" tooltips="1" connect="1" arrows="1" fold="1" page="1" pageScale="1" pageWidth="1169" pageHeight="827" math="0" shadow="0">
      <root>
        <mxCell id="0" />
        <mxCell id="1" parent="0" />
        <mxCell id="uQoqjxmBy0VCsLp3wibq-3" value="" style="edgeStyle=orthogonalEdgeStyle;rounded=0;orthogonalLoop=1;jettySize=auto;html=1;exitX=0.5;exitY=1;exitDx=0;exitDy=0;entryX=0.5;entryY=0;entryDx=0;entryDy=0;" edge="1" parent="1" source="uQoqjxmBy0VCsLp3wibq-9" target="uQoqjxmBy0VCsLp3wibq-15">
          <mxGeometry relative="1" as="geometry">
            <mxPoint x="480" y="70" as="sourcePoint" />
            <mxPoint x="560" y="120" as="targetPoint" />
          </mxGeometry>
        </mxCell>
        <mxCell id="uQoqjxmBy0VCsLp3wibq-5" value="" style="edgeStyle=orthogonalEdgeStyle;rounded=0;orthogonalLoop=1;jettySize=auto;html=1;exitX=0.5;exitY=1;exitDx=0;exitDy=0;" edge="1" parent="1" source="uQoqjxmBy0VCsLp3wibq-15" target="uQoqjxmBy0VCsLp3wibq-4">
          <mxGeometry relative="1" as="geometry">
            <mxPoint x="560" y="160" as="sourcePoint" />
          </mxGeometry>
        </mxCell>
        <mxCell id="uQoqjxmBy0VCsLp3wibq-10" style="edgeStyle=orthogonalEdgeStyle;rounded=0;orthogonalLoop=1;jettySize=auto;html=1;entryX=0.5;entryY=0;entryDx=0;entryDy=0;" edge="1" parent="1" target="uQoqjxmBy0VCsLp3wibq-6">
          <mxGeometry relative="1" as="geometry">
            <mxPoint x="560" y="160" as="sourcePoint" />
            <Array as="points">
              <mxPoint x="560" y="200" />
              <mxPoint x="440" y="200" />
            </Array>
          </mxGeometry>
        </mxCell>
        <mxCell id="uQoqjxmBy0VCsLp3wibq-11" style="edgeStyle=orthogonalEdgeStyle;rounded=0;orthogonalLoop=1;jettySize=auto;html=1;entryX=0.5;entryY=0;entryDx=0;entryDy=0;" edge="1" parent="1" target="uQoqjxmBy0VCsLp3wibq-7">
          <mxGeometry relative="1" as="geometry">
            <mxPoint x="560" y="160" as="sourcePoint" />
            <Array as="points">
              <mxPoint x="560" y="200" />
              <mxPoint x="680" y="200" />
            </Array>
          </mxGeometry>
        </mxCell>
        <mxCell id="uQoqjxmBy0VCsLp3wibq-17" value="" style="edgeStyle=orthogonalEdgeStyle;rounded=0;orthogonalLoop=1;jettySize=auto;html=1;" edge="1" parent="1" source="uQoqjxmBy0VCsLp3wibq-4" target="uQoqjxmBy0VCsLp3wibq-16">
          <mxGeometry relative="1" as="geometry" />
        </mxCell>
        <mxCell id="uQoqjxmBy0VCsLp3wibq-4" value="Open chest" style="rounded=0;whiteSpace=wrap;html=1;" vertex="1" parent="1">
          <mxGeometry x="520" y="285" width="80" height="40" as="geometry" />
        </mxCell>
        <mxCell id="uQoqjxmBy0VCsLp3wibq-14" style="edgeStyle=orthogonalEdgeStyle;rounded=0;orthogonalLoop=1;jettySize=auto;html=1;entryX=0;entryY=0.5;entryDx=0;entryDy=0;" edge="1" parent="1" source="uQoqjxmBy0VCsLp3wibq-6" target="uQoqjxmBy0VCsLp3wibq-15">
          <mxGeometry relative="1" as="geometry">
            <mxPoint x="520" y="140" as="targetPoint" />
            <Array as="points">
              <mxPoint x="360" y="305" />
              <mxPoint x="360" y="140" />
            </Array>
          </mxGeometry>
        </mxCell>
        <mxCell id="uQoqjxmBy0VCsLp3wibq-6" value="Examine chest" style="rounded=0;whiteSpace=wrap;html=1;" vertex="1" parent="1">
          <mxGeometry x="400" y="285" width="80" height="40" as="geometry" />
        </mxCell>
        <mxCell id="uQoqjxmBy0VCsLp3wibq-13" style="edgeStyle=orthogonalEdgeStyle;rounded=0;orthogonalLoop=1;jettySize=auto;html=1;entryX=0;entryY=0.5;entryDx=0;entryDy=0;" edge="1" parent="1" source="uQoqjxmBy0VCsLp3wibq-7" target="uQoqjxmBy0VCsLp3wibq-12">
          <mxGeometry relative="1" as="geometry" />
        </mxCell>
        <mxCell id="uQoqjxmBy0VCsLp3wibq-7" value="Leave chest" style="rounded=0;whiteSpace=wrap;html=1;" vertex="1" parent="1">
          <mxGeometry x="640" y="285" width="80" height="40" as="geometry" />
        </mxCell>
        <mxCell id="uQoqjxmBy0VCsLp3wibq-9" value="Start game" style="ellipse;whiteSpace=wrap;html=1;" vertex="1" parent="1">
          <mxGeometry x="515" y="10" width="90" height="50" as="geometry" />
        </mxCell>
        <mxCell id="uQoqjxmBy0VCsLp3wibq-12" value="Dead" style="ellipse;whiteSpace=wrap;html=1;" vertex="1" parent="1">
          <mxGeometry x="780" y="280" width="90" height="50" as="geometry" />
        </mxCell>
        <mxCell id="uQoqjxmBy0VCsLp3wibq-15" value="Chest choice" style="rhombus;whiteSpace=wrap;html=1;" vertex="1" parent="1">
          <mxGeometry x="505" y="100" width="110" height="80" as="geometry" />
        </mxCell>
        <mxCell id="uQoqjxmBy0VCsLp3wibq-21" value="" style="edgeStyle=orthogonalEdgeStyle;rounded=0;orthogonalLoop=1;jettySize=auto;html=1;" edge="1" parent="1" source="uQoqjxmBy0VCsLp3wibq-16" target="uQoqjxmBy0VCsLp3wibq-18">
          <mxGeometry relative="1" as="geometry">
            <Array as="points">
              <mxPoint x="560" y="480" />
              <mxPoint x="440" y="480" />
            </Array>
          </mxGeometry>
        </mxCell>
        <mxCell id="uQoqjxmBy0VCsLp3wibq-22" style="edgeStyle=orthogonalEdgeStyle;rounded=0;orthogonalLoop=1;jettySize=auto;html=1;entryX=0.5;entryY=0;entryDx=0;entryDy=0;" edge="1" parent="1" source="uQoqjxmBy0VCsLp3wibq-16" target="uQoqjxmBy0VCsLp3wibq-19">
          <mxGeometry relative="1" as="geometry">
            <Array as="points">
              <mxPoint x="560" y="500" />
              <mxPoint x="560" y="500" />
            </Array>
          </mxGeometry>
        </mxCell>
        <mxCell id="uQoqjxmBy0VCsLp3wibq-23" style="edgeStyle=orthogonalEdgeStyle;rounded=0;orthogonalLoop=1;jettySize=auto;html=1;entryX=0.5;entryY=0;entryDx=0;entryDy=0;" edge="1" parent="1" source="uQoqjxmBy0VCsLp3wibq-16" target="uQoqjxmBy0VCsLp3wibq-20">
          <mxGeometry relative="1" as="geometry">
            <Array as="points">
              <mxPoint x="560" y="480" />
              <mxPoint x="680" y="480" />
            </Array>
          </mxGeometry>
        </mxCell>
        <mxCell id="uQoqjxmBy0VCsLp3wibq-16" value="Open chest choice" style="rhombus;whiteSpace=wrap;html=1;" vertex="1" parent="1">
          <mxGeometry x="490" y="374" width="140" height="80" as="geometry" />
        </mxCell>
        <mxCell id="uQoqjxmBy0VCsLp3wibq-26" style="edgeStyle=orthogonalEdgeStyle;rounded=0;orthogonalLoop=1;jettySize=auto;html=1;entryX=0;entryY=0.5;entryDx=0;entryDy=0;" edge="1" parent="1" source="uQoqjxmBy0VCsLp3wibq-18" target="uQoqjxmBy0VCsLp3wibq-16">
          <mxGeometry relative="1" as="geometry">
            <mxPoint x="360" y="400" as="targetPoint" />
            <Array as="points">
              <mxPoint x="361" y="540" />
              <mxPoint x="361" y="414" />
            </Array>
          </mxGeometry>
        </mxCell>
        <mxCell id="uQoqjxmBy0VCsLp3wibq-18" value="Cast spell on chest" style="rounded=0;whiteSpace=wrap;html=1;" vertex="1" parent="1">
          <mxGeometry x="400" y="520" width="80" height="40" as="geometry" />
        </mxCell>
        <mxCell id="uQoqjxmBy0VCsLp3wibq-28" value="" style="edgeStyle=orthogonalEdgeStyle;rounded=0;orthogonalLoop=1;jettySize=auto;html=1;" edge="1" parent="1" source="uQoqjxmBy0VCsLp3wibq-19" target="uQoqjxmBy0VCsLp3wibq-55">
          <mxGeometry relative="1" as="geometry">
            <mxPoint x="560" y="600" as="targetPoint" />
          </mxGeometry>
        </mxCell>
        <mxCell id="uQoqjxmBy0VCsLp3wibq-19" value="Kick chest" style="rounded=0;whiteSpace=wrap;html=1;" vertex="1" parent="1">
          <mxGeometry x="520" y="520" width="80" height="40" as="geometry" />
        </mxCell>
        <mxCell id="uQoqjxmBy0VCsLp3wibq-38" style="edgeStyle=orthogonalEdgeStyle;rounded=0;orthogonalLoop=1;jettySize=auto;html=1;entryX=0;entryY=0.5;entryDx=0;entryDy=0;" edge="1" parent="1" source="uQoqjxmBy0VCsLp3wibq-20" target="uQoqjxmBy0VCsLp3wibq-37">
          <mxGeometry relative="1" as="geometry" />
        </mxCell>
        <mxCell id="uQoqjxmBy0VCsLp3wibq-20" value="Give up" style="rounded=0;whiteSpace=wrap;html=1;" vertex="1" parent="1">
          <mxGeometry x="640" y="520" width="80" height="40" as="geometry" />
        </mxCell>
        <mxCell id="uQoqjxmBy0VCsLp3wibq-30" value="" style="edgeStyle=orthogonalEdgeStyle;rounded=0;orthogonalLoop=1;jettySize=auto;html=1;" edge="1" parent="1" source="uQoqjxmBy0VCsLp3wibq-55" target="uQoqjxmBy0VCsLp3wibq-29">
          <mxGeometry relative="1" as="geometry">
            <mxPoint x="560" y="640" as="sourcePoint" />
          </mxGeometry>
        </mxCell>
        <mxCell id="uQoqjxmBy0VCsLp3wibq-46" value="" style="edgeStyle=orthogonalEdgeStyle;rounded=0;orthogonalLoop=1;jettySize=auto;html=1;" edge="1" parent="1" source="uQoqjxmBy0VCsLp3wibq-29" target="uQoqjxmBy0VCsLp3wibq-32">
          <mxGeometry relative="1" as="geometry" />
        </mxCell>
        <mxCell id="uQoqjxmBy0VCsLp3wibq-47" style="edgeStyle=orthogonalEdgeStyle;rounded=0;orthogonalLoop=1;jettySize=auto;html=1;entryX=0.5;entryY=0;entryDx=0;entryDy=0;" edge="1" parent="1" source="uQoqjxmBy0VCsLp3wibq-29" target="uQoqjxmBy0VCsLp3wibq-31">
          <mxGeometry relative="1" as="geometry">
            <Array as="points">
              <mxPoint x="560" y="780" />
              <mxPoint x="440" y="780" />
            </Array>
          </mxGeometry>
        </mxCell>
        <mxCell id="uQoqjxmBy0VCsLp3wibq-48" style="edgeStyle=orthogonalEdgeStyle;rounded=0;orthogonalLoop=1;jettySize=auto;html=1;entryX=0.5;entryY=0;entryDx=0;entryDy=0;" edge="1" parent="1" source="uQoqjxmBy0VCsLp3wibq-29" target="uQoqjxmBy0VCsLp3wibq-33">
          <mxGeometry relative="1" as="geometry">
            <Array as="points">
              <mxPoint x="560" y="780" />
              <mxPoint x="680" y="780" />
            </Array>
          </mxGeometry>
        </mxCell>
        <mxCell id="uQoqjxmBy0VCsLp3wibq-29" value="Crow choice" style="rhombus;whiteSpace=wrap;html=1;" vertex="1" parent="1">
          <mxGeometry x="490" y="680" width="140" height="80" as="geometry" />
        </mxCell>
        <mxCell id="uQoqjxmBy0VCsLp3wibq-35" value="" style="edgeStyle=orthogonalEdgeStyle;rounded=0;orthogonalLoop=1;jettySize=auto;html=1;" edge="1" parent="1" source="uQoqjxmBy0VCsLp3wibq-31" target="uQoqjxmBy0VCsLp3wibq-51">
          <mxGeometry relative="1" as="geometry">
            <mxPoint x="360" y="847" as="targetPoint" />
          </mxGeometry>
        </mxCell>
        <mxCell id="uQoqjxmBy0VCsLp3wibq-31" value="Look at crow" style="rounded=0;whiteSpace=wrap;html=1;" vertex="1" parent="1">
          <mxGeometry x="400" y="827" width="80" height="40" as="geometry" />
        </mxCell>
        <mxCell id="uQoqjxmBy0VCsLp3wibq-63" style="edgeStyle=orthogonalEdgeStyle;rounded=0;orthogonalLoop=1;jettySize=auto;html=1;entryX=0.5;entryY=0;entryDx=0;entryDy=0;" edge="1" parent="1" source="uQoqjxmBy0VCsLp3wibq-32" target="uQoqjxmBy0VCsLp3wibq-59">
          <mxGeometry relative="1" as="geometry" />
        </mxCell>
        <mxCell id="uQoqjxmBy0VCsLp3wibq-32" value="Scare crow off" style="rounded=0;whiteSpace=wrap;html=1;" vertex="1" parent="1">
          <mxGeometry x="520" y="827" width="80" height="40" as="geometry" />
        </mxCell>
        <mxCell id="uQoqjxmBy0VCsLp3wibq-57" style="edgeStyle=orthogonalEdgeStyle;rounded=0;orthogonalLoop=1;jettySize=auto;html=1;entryX=0.5;entryY=0;entryDx=0;entryDy=0;" edge="1" parent="1" source="uQoqjxmBy0VCsLp3wibq-33" target="uQoqjxmBy0VCsLp3wibq-56">
          <mxGeometry relative="1" as="geometry" />
        </mxCell>
        <mxCell id="uQoqjxmBy0VCsLp3wibq-33" value="Give crow the purple stone" style="rounded=0;whiteSpace=wrap;html=1;" vertex="1" parent="1">
          <mxGeometry x="640" y="827" width="80" height="40" as="geometry" />
        </mxCell>
        <mxCell id="uQoqjxmBy0VCsLp3wibq-43" style="edgeStyle=orthogonalEdgeStyle;rounded=0;orthogonalLoop=1;jettySize=auto;html=1;entryX=1;entryY=0.5;entryDx=0;entryDy=0;" edge="1" parent="1" source="uQoqjxmBy0VCsLp3wibq-51" target="uQoqjxmBy0VCsLp3wibq-36">
          <mxGeometry relative="1" as="geometry">
            <mxPoint x="240" y="847" as="sourcePoint" />
          </mxGeometry>
        </mxCell>
        <mxCell id="uQoqjxmBy0VCsLp3wibq-40" value="" style="edgeStyle=orthogonalEdgeStyle;rounded=0;orthogonalLoop=1;jettySize=auto;html=1;" edge="1" parent="1" source="uQoqjxmBy0VCsLp3wibq-36" target="uQoqjxmBy0VCsLp3wibq-39">
          <mxGeometry relative="1" as="geometry" />
        </mxCell>
        <mxCell id="uQoqjxmBy0VCsLp3wibq-45" style="edgeStyle=orthogonalEdgeStyle;rounded=0;orthogonalLoop=1;jettySize=auto;html=1;entryX=0;entryY=0.5;entryDx=0;entryDy=0;" edge="1" parent="1" source="uQoqjxmBy0VCsLp3wibq-36" target="uQoqjxmBy0VCsLp3wibq-29">
          <mxGeometry relative="1" as="geometry">
            <Array as="points">
              <mxPoint x="130" y="720" />
            </Array>
          </mxGeometry>
        </mxCell>
        <mxCell id="uQoqjxmBy0VCsLp3wibq-36" value="false_attempt &amp;gt;= 2" style="rhombus;whiteSpace=wrap;html=1;" vertex="1" parent="1">
          <mxGeometry x="60" y="807" width="140" height="80" as="geometry" />
        </mxCell>
        <mxCell id="uQoqjxmBy0VCsLp3wibq-37" value="Dead" style="ellipse;whiteSpace=wrap;html=1;" vertex="1" parent="1">
          <mxGeometry x="780" y="515" width="90" height="50" as="geometry" />
        </mxCell>
        <mxCell id="uQoqjxmBy0VCsLp3wibq-39" value="Dead" style="ellipse;whiteSpace=wrap;html=1;" vertex="1" parent="1">
          <mxGeometry x="-90" y="822" width="90" height="50" as="geometry" />
        </mxCell>
        <mxCell id="uQoqjxmBy0VCsLp3wibq-41" value="False" style="text;html=1;strokeColor=none;fillColor=none;align=center;verticalAlign=middle;whiteSpace=wrap;rounded=0;" vertex="1" parent="1">
          <mxGeometry x="120" y="750" width="60" height="30" as="geometry" />
        </mxCell>
        <mxCell id="uQoqjxmBy0VCsLp3wibq-42" value="True" style="text;html=1;strokeColor=none;fillColor=none;align=center;verticalAlign=middle;whiteSpace=wrap;rounded=0;" vertex="1" parent="1">
          <mxGeometry x="10" y="820" width="60" height="30" as="geometry" />
        </mxCell>
        <mxCell id="uQoqjxmBy0VCsLp3wibq-51" value="false_attempt += 1" style="shape=parallelogram;perimeter=parallelogramPerimeter;whiteSpace=wrap;html=1;fixedSize=1;" vertex="1" parent="1">
          <mxGeometry x="230" y="822" width="140" height="50" as="geometry" />
        </mxCell>
        <mxCell id="uQoqjxmBy0VCsLp3wibq-55" value="Obtain chest key and purple stone" style="shape=parallelogram;perimeter=parallelogramPerimeter;whiteSpace=wrap;html=1;fixedSize=1;" vertex="1" parent="1">
          <mxGeometry x="485" y="600" width="150" height="50" as="geometry" />
        </mxCell>
        <mxCell id="uQoqjxmBy0VCsLp3wibq-64" style="edgeStyle=orthogonalEdgeStyle;rounded=0;orthogonalLoop=1;jettySize=auto;html=1;" edge="1" parent="1" source="uQoqjxmBy0VCsLp3wibq-56">
          <mxGeometry relative="1" as="geometry">
            <mxPoint x="560" y="945" as="targetPoint" />
          </mxGeometry>
        </mxCell>
        <mxCell id="uQoqjxmBy0VCsLp3wibq-56" value="Obtain crow key" style="shape=parallelogram;perimeter=parallelogramPerimeter;whiteSpace=wrap;html=1;fixedSize=1;" vertex="1" parent="1">
          <mxGeometry x="605" y="920" width="150" height="50" as="geometry" />
        </mxCell>
        <mxCell id="uQoqjxmBy0VCsLp3wibq-65" style="edgeStyle=orthogonalEdgeStyle;rounded=0;orthogonalLoop=1;jettySize=auto;html=1;entryX=0.5;entryY=0;entryDx=0;entryDy=0;" edge="1" parent="1" source="uQoqjxmBy0VCsLp3wibq-59" target="uQoqjxmBy0VCsLp3wibq-61">
          <mxGeometry relative="1" as="geometry" />
        </mxCell>
        <mxCell id="uQoqjxmBy0VCsLp3wibq-66" style="edgeStyle=orthogonalEdgeStyle;rounded=0;orthogonalLoop=1;jettySize=auto;html=1;entryX=0.5;entryY=0;entryDx=0;entryDy=0;" edge="1" parent="1" source="uQoqjxmBy0VCsLp3wibq-59" target="uQoqjxmBy0VCsLp3wibq-60">
          <mxGeometry relative="1" as="geometry">
            <Array as="points">
              <mxPoint x="560" y="1210" />
              <mxPoint x="440" y="1210" />
            </Array>
          </mxGeometry>
        </mxCell>
        <mxCell id="uQoqjxmBy0VCsLp3wibq-67" style="edgeStyle=orthogonalEdgeStyle;rounded=0;orthogonalLoop=1;jettySize=auto;html=1;entryX=0.5;entryY=0;entryDx=0;entryDy=0;" edge="1" parent="1" source="uQoqjxmBy0VCsLp3wibq-59" target="uQoqjxmBy0VCsLp3wibq-62">
          <mxGeometry relative="1" as="geometry">
            <Array as="points">
              <mxPoint x="560" y="1210" />
              <mxPoint x="680" y="1210" />
            </Array>
          </mxGeometry>
        </mxCell>
        <mxCell id="uQoqjxmBy0VCsLp3wibq-59" value="Great wall choice" style="rhombus;whiteSpace=wrap;html=1;" vertex="1" parent="1">
          <mxGeometry x="490" y="1040" width="140" height="80" as="geometry" />
        </mxCell>
        <mxCell id="uQoqjxmBy0VCsLp3wibq-68" style="edgeStyle=orthogonalEdgeStyle;rounded=0;orthogonalLoop=1;jettySize=auto;html=1;" edge="1" parent="1" source="uQoqjxmBy0VCsLp3wibq-77" target="uQoqjxmBy0VCsLp3wibq-87">
          <mxGeometry relative="1" as="geometry">
            <mxPoint x="180" y="1270" as="targetPoint" />
          </mxGeometry>
        </mxCell>
        <mxCell id="uQoqjxmBy0VCsLp3wibq-60" value="Use chest key" style="rounded=0;whiteSpace=wrap;html=1;" vertex="1" parent="1">
          <mxGeometry x="400" y="1260" width="80" height="40" as="geometry" />
        </mxCell>
        <mxCell id="uQoqjxmBy0VCsLp3wibq-70" style="edgeStyle=orthogonalEdgeStyle;rounded=0;orthogonalLoop=1;jettySize=auto;html=1;entryX=0.5;entryY=0;entryDx=0;entryDy=0;" edge="1" parent="1" source="uQoqjxmBy0VCsLp3wibq-61" target="uQoqjxmBy0VCsLp3wibq-69">
          <mxGeometry relative="1" as="geometry" />
        </mxCell>
        <mxCell id="uQoqjxmBy0VCsLp3wibq-61" value="Use crow key" style="rounded=0;whiteSpace=wrap;html=1;" vertex="1" parent="1">
          <mxGeometry x="520" y="1260" width="80" height="40" as="geometry" />
        </mxCell>
        <mxCell id="uQoqjxmBy0VCsLp3wibq-83" style="edgeStyle=orthogonalEdgeStyle;rounded=0;orthogonalLoop=1;jettySize=auto;html=1;" edge="1" parent="1" source="uQoqjxmBy0VCsLp3wibq-62">
          <mxGeometry relative="1" as="geometry">
            <mxPoint x="340" y="1390" as="targetPoint" />
            <Array as="points">
              <mxPoint x="680" y="1580" />
              <mxPoint x="340" y="1580" />
            </Array>
          </mxGeometry>
        </mxCell>
        <mxCell id="uQoqjxmBy0VCsLp3wibq-62" value="Shout out" style="rounded=0;whiteSpace=wrap;html=1;" vertex="1" parent="1">
          <mxGeometry x="640" y="1260" width="80" height="40" as="geometry" />
        </mxCell>
        <mxCell id="uQoqjxmBy0VCsLp3wibq-71" style="edgeStyle=orthogonalEdgeStyle;rounded=0;orthogonalLoop=1;jettySize=auto;html=1;" edge="1" parent="1" source="uQoqjxmBy0VCsLp3wibq-69">
          <mxGeometry relative="1" as="geometry">
            <mxPoint x="340" y="1280" as="targetPoint" />
          </mxGeometry>
        </mxCell>
        <mxCell id="uQoqjxmBy0VCsLp3wibq-75" style="edgeStyle=orthogonalEdgeStyle;rounded=0;orthogonalLoop=1;jettySize=auto;html=1;entryX=0.5;entryY=0;entryDx=0;entryDy=0;" edge="1" parent="1" source="uQoqjxmBy0VCsLp3wibq-69" target="uQoqjxmBy0VCsLp3wibq-74">
          <mxGeometry relative="1" as="geometry" />
        </mxCell>
        <mxCell id="uQoqjxmBy0VCsLp3wibq-69" value="Have crow key?" style="rhombus;whiteSpace=wrap;html=1;" vertex="1" parent="1">
          <mxGeometry x="490" y="1350" width="140" height="80" as="geometry" />
        </mxCell>
        <mxCell id="uQoqjxmBy0VCsLp3wibq-72" value="False" style="text;html=1;strokeColor=none;fillColor=none;align=center;verticalAlign=middle;whiteSpace=wrap;rounded=0;" vertex="1" parent="1">
          <mxGeometry x="430" y="1360" width="60" height="30" as="geometry" />
        </mxCell>
        <mxCell id="uQoqjxmBy0VCsLp3wibq-74" value="Victory" style="ellipse;whiteSpace=wrap;html=1;" vertex="1" parent="1">
          <mxGeometry x="515" y="1490" width="90" height="50" as="geometry" />
        </mxCell>
        <mxCell id="uQoqjxmBy0VCsLp3wibq-76" value="True" style="text;html=1;strokeColor=none;fillColor=none;align=center;verticalAlign=middle;whiteSpace=wrap;rounded=0;" vertex="1" parent="1">
          <mxGeometry x="505" y="1440" width="60" height="30" as="geometry" />
        </mxCell>
        <mxCell id="uQoqjxmBy0VCsLp3wibq-78" value="" style="edgeStyle=orthogonalEdgeStyle;rounded=0;orthogonalLoop=1;jettySize=auto;html=1;" edge="1" parent="1" source="uQoqjxmBy0VCsLp3wibq-60" target="uQoqjxmBy0VCsLp3wibq-77">
          <mxGeometry relative="1" as="geometry">
            <mxPoint x="490" y="1080" as="targetPoint" />
            <mxPoint x="400" y="1280" as="sourcePoint" />
            <Array as="points">
              <mxPoint x="340" y="1280" />
            </Array>
          </mxGeometry>
        </mxCell>
        <mxCell id="uQoqjxmBy0VCsLp3wibq-79" style="edgeStyle=orthogonalEdgeStyle;rounded=0;orthogonalLoop=1;jettySize=auto;html=1;entryX=0;entryY=0.5;entryDx=0;entryDy=0;" edge="1" parent="1" source="uQoqjxmBy0VCsLp3wibq-77" target="uQoqjxmBy0VCsLp3wibq-59">
          <mxGeometry relative="1" as="geometry">
            <mxPoint x="560" y="1170" as="targetPoint" />
          </mxGeometry>
        </mxCell>
        <mxCell id="uQoqjxmBy0VCsLp3wibq-77" value="Try 3 times?" style="rhombus;whiteSpace=wrap;html=1;" vertex="1" parent="1">
          <mxGeometry x="270" y="1130" width="140" height="80" as="geometry" />
        </mxCell>
        <mxCell id="uQoqjxmBy0VCsLp3wibq-84" value="False" style="text;html=1;strokeColor=none;fillColor=none;align=center;verticalAlign=middle;whiteSpace=wrap;rounded=0;" vertex="1" parent="1">
          <mxGeometry x="390" y="1110" width="60" height="30" as="geometry" />
        </mxCell>
        <mxCell id="uQoqjxmBy0VCsLp3wibq-85" value="True" style="text;html=1;strokeColor=none;fillColor=none;align=center;verticalAlign=middle;whiteSpace=wrap;rounded=0;" vertex="1" parent="1">
          <mxGeometry x="210" y="1140" width="60" height="30" as="geometry" />
        </mxCell>
        <mxCell id="uQoqjxmBy0VCsLp3wibq-91" style="edgeStyle=orthogonalEdgeStyle;rounded=0;orthogonalLoop=1;jettySize=auto;html=1;" edge="1" parent="1" source="uQoqjxmBy0VCsLp3wibq-87" target="uQoqjxmBy0VCsLp3wibq-89">
          <mxGeometry relative="1" as="geometry">
            <Array as="points">
              <mxPoint x="80" y="1360" />
              <mxPoint x="-40" y="1360" />
            </Array>
          </mxGeometry>
        </mxCell>
        <mxCell id="uQoqjxmBy0VCsLp3wibq-92" style="edgeStyle=orthogonalEdgeStyle;rounded=0;orthogonalLoop=1;jettySize=auto;html=1;" edge="1" parent="1" source="uQoqjxmBy0VCsLp3wibq-87" target="uQoqjxmBy0VCsLp3wibq-88">
          <mxGeometry relative="1" as="geometry">
            <Array as="points">
              <mxPoint x="80" y="1390" />
              <mxPoint x="80" y="1390" />
            </Array>
          </mxGeometry>
        </mxCell>
        <mxCell id="uQoqjxmBy0VCsLp3wibq-93" style="edgeStyle=orthogonalEdgeStyle;rounded=0;orthogonalLoop=1;jettySize=auto;html=1;" edge="1" parent="1" source="uQoqjxmBy0VCsLp3wibq-87" target="uQoqjxmBy0VCsLp3wibq-90">
          <mxGeometry relative="1" as="geometry">
            <Array as="points">
              <mxPoint x="80" y="1360" />
              <mxPoint x="210" y="1360" />
            </Array>
          </mxGeometry>
        </mxCell>
        <mxCell id="uQoqjxmBy0VCsLp3wibq-87" value="Rage mode choice" style="rhombus;whiteSpace=wrap;html=1;" vertex="1" parent="1">
          <mxGeometry x="10" y="1250" width="140" height="80" as="geometry" />
        </mxCell>
        <mxCell id="uQoqjxmBy0VCsLp3wibq-95" style="edgeStyle=orthogonalEdgeStyle;rounded=0;orthogonalLoop=1;jettySize=auto;html=1;" edge="1" parent="1" source="uQoqjxmBy0VCsLp3wibq-88" target="uQoqjxmBy0VCsLp3wibq-94">
          <mxGeometry relative="1" as="geometry" />
        </mxCell>
        <mxCell id="uQoqjxmBy0VCsLp3wibq-88" value="Kick chest 100 times" style="rounded=0;whiteSpace=wrap;html=1;" vertex="1" parent="1">
          <mxGeometry x="35" y="1400" width="80" height="40" as="geometry" />
        </mxCell>
        <mxCell id="uQoqjxmBy0VCsLp3wibq-98" style="edgeStyle=orthogonalEdgeStyle;rounded=0;orthogonalLoop=1;jettySize=auto;html=1;" edge="1" parent="1" source="uQoqjxmBy0VCsLp3wibq-89">
          <mxGeometry relative="1" as="geometry">
            <mxPoint x="-110" y="1020" as="targetPoint" />
          </mxGeometry>
        </mxCell>
        <mxCell id="uQoqjxmBy0VCsLp3wibq-89" value="Talk strange symbols" style="rounded=0;whiteSpace=wrap;html=1;" vertex="1" parent="1">
          <mxGeometry x="-80" y="1400" width="80" height="40" as="geometry" />
        </mxCell>
        <mxCell id="uQoqjxmBy0VCsLp3wibq-97" style="edgeStyle=orthogonalEdgeStyle;rounded=0;orthogonalLoop=1;jettySize=auto;html=1;entryX=0.5;entryY=0;entryDx=0;entryDy=0;" edge="1" parent="1" source="uQoqjxmBy0VCsLp3wibq-90" target="uQoqjxmBy0VCsLp3wibq-96">
          <mxGeometry relative="1" as="geometry" />
        </mxCell>
        <mxCell id="uQoqjxmBy0VCsLp3wibq-90" value="Give up" style="rounded=0;whiteSpace=wrap;html=1;" vertex="1" parent="1">
          <mxGeometry x="170" y="1400" width="80" height="40" as="geometry" />
        </mxCell>
        <mxCell id="uQoqjxmBy0VCsLp3wibq-94" value="Victory" style="ellipse;whiteSpace=wrap;html=1;" vertex="1" parent="1">
          <mxGeometry x="30" y="1500" width="90" height="50" as="geometry" />
        </mxCell>
        <mxCell id="uQoqjxmBy0VCsLp3wibq-96" value="Dead" style="ellipse;whiteSpace=wrap;html=1;" vertex="1" parent="1">
          <mxGeometry x="165" y="1500" width="90" height="50" as="geometry" />
        </mxCell>
        <mxCell id="uQoqjxmBy0VCsLp3wibq-99" value="" style="endArrow=classic;html=1;rounded=0;" edge="1" parent="1">
          <mxGeometry width="50" height="50" relative="1" as="geometry">
            <mxPoint x="-110" y="1020" as="sourcePoint" />
            <mxPoint x="560" y="1020" as="targetPoint" />
          </mxGeometry>
        </mxCell>
      </root>
    </mxGraphModel>
  </diagram>
</mxfile>
